<svg width="500" height="500" viewBox="0 0 500 500" fill="none" xmlns="http://www.w3.org/2000/svg">
<rect width="500" height="500" fill="black"/>
<path fill-rule="evenodd" clip-rule="evenodd" d="M173.089 136C159.274 136 146.025 141.488 136.257 151.257C126.488 161.025 121 174.274 121 188.089V298.198C121 312.013 126.488 325.262 136.257 335.031C146.025 344.799 159.274 350.287 173.089 350.287H187.134V375.297V388.191L198.687 382.464L263.604 350.287H327.864C341.679 350.287 354.928 344.799 364.697 335.031C374.466 325.262 379.954 312.013 379.954 298.198V188.089C379.954 174.274 374.466 161.025 364.697 151.257C354.928 141.488 341.679 136 327.864 136H173.089ZM147.57 162.57C154.338 155.802 163.518 152 173.089 152H327.864C337.436 152 346.615 155.802 353.383 162.57C360.151 169.338 363.954 178.518 363.954 188.089V298.198C363.954 307.769 360.151 316.949 353.383 323.717C346.615 330.485 337.436 334.287 327.864 334.287H261.73H259.856L258.177 335.119L203.134 362.402V342.287V334.287H195.134H173.089C163.518 334.287 154.338 330.485 147.57 323.717C140.802 316.949 137 307.769 137 298.198V188.089C137 178.518 140.802 169.338 147.57 162.57ZM272.342 259.772L316.432 215.798L305.133 204.47L266.7 242.802L239.34 215.442L233.684 209.785L228.027 215.442L183.937 259.531L195.251 270.845L233.684 232.413L261.036 259.765L266.686 265.415L272.342 259.772Z" fill="white"/>
</svg>
