<svg width="500" height="500" viewBox="0 0 500 500" fill="none" xmlns="http://www.w3.org/2000/svg">
<rect width="500" height="500" fill="black"/>
<path d="M148.08 347.056L172.578 307.218L176.723 300.501L173.3 293.38C166.583 279.643 163.232 265.791 163.333 249.556C163.333 193.713 208.602 148.444 264.444 148.444C320.287 148.444 365.556 193.713 365.556 249.556C365.556 305.398 320.287 350.667 264.444 350.667C247.978 350.768 233.938 347.316 220.042 340.426L216.171 338.533L211.896 339.068L148.08 347.056ZM213.701 353.411C229.012 360.893 246.244 365.111 264.444 365.111C328.26 365.111 380 313.371 380 249.556C380 185.74 328.26 134 264.444 134C200.629 134 148.889 185.74 148.889 249.556C148.889 267.51 152.977 284.497 160.286 299.649L129.707 349.338L120 365.111L138.373 362.814L213.701 353.397V353.411Z" fill="white" stroke="white" stroke-width="4"/>
</svg>
