<svg width="500" height="500" viewBox="0 0 500 500" fill="none" xmlns="http://www.w3.org/2000/svg">
<rect width="500" height="500" fill="black"/>
<g clip-path="url(#clip0_13_312)">
<path d="M250.492 250C250.492 238.507 255.048 227.485 263.158 219.359C271.269 211.232 282.268 206.667 293.738 206.667C305.207 206.667 316.207 211.232 324.317 219.359C332.428 227.485 336.984 238.507 336.984 250C336.984 261.493 332.428 272.515 324.317 280.641C316.207 288.768 305.207 293.333 293.738 293.333C282.268 293.333 271.269 288.768 263.158 280.641C255.048 272.515 250.492 261.493 250.492 250V250Z" fill="#1ABCFE"/>
<path d="M164 336.667C164 325.174 168.556 314.152 176.666 306.025C184.777 297.899 195.776 293.333 207.246 293.333H250.492V336.667C250.492 348.159 245.936 359.181 237.825 367.308C229.715 375.435 218.716 380 207.246 380C195.776 380 184.777 375.435 176.666 367.308C168.556 359.181 164 348.159 164 336.667V336.667Z" fill="#0ACF83"/>
<path d="M250.492 120V206.667H293.738C305.207 206.667 316.207 202.101 324.317 193.975C332.428 185.848 336.984 174.826 336.984 163.333C336.984 151.841 332.428 140.819 324.317 132.692C316.207 124.565 305.207 120 293.738 120H250.492Z" fill="#FF7262"/>
<path d="M164 163.333C164 174.826 168.556 185.848 176.666 193.975C184.777 202.101 195.776 206.667 207.246 206.667H250.492V120H207.246C195.776 120 184.777 124.565 176.666 132.692C168.556 140.819 164 151.841 164 163.333V163.333Z" fill="#F24E1E"/>
<path d="M164 250C164 261.493 168.556 272.515 176.666 280.641C184.777 288.768 195.776 293.333 207.246 293.333H250.492V206.667H207.246C195.776 206.667 184.777 211.232 176.666 219.359C168.556 227.485 164 238.507 164 250V250Z" fill="#A259FF"/>
</g>
<defs>
<clipPath id="clip0_13_312">
<rect width="172.984" height="260" fill="white" transform="translate(164 120)"/>
</clipPath>
</defs>
</svg>
