<svg width="500" height="500" viewBox="0 0 500 500" fill="none" xmlns="http://www.w3.org/2000/svg">
<rect width="500" height="500" fill="black"/>
<path d="M340.164 135.879C341.453 134.573 342.326 132.915 342.673 131.113C343.02 129.312 342.825 127.448 342.114 125.757C341.418 124.061 340.235 122.61 338.714 121.585C337.194 120.561 335.405 120.009 333.571 120L166.429 120C164.595 120.009 162.806 120.561 161.286 121.585C159.765 122.61 158.582 124.061 157.886 125.757C157.366 126.859 157.112 128.068 157.143 129.286C157.136 130.508 157.37 131.719 157.832 132.851C158.294 133.982 158.975 135.011 159.836 135.879L243.407 219.45C244.27 220.32 245.297 221.011 246.429 221.483C247.561 221.954 248.774 222.197 250 222.197C251.226 222.197 252.44 221.954 253.571 221.483C254.703 221.011 255.73 220.32 256.593 219.45L340.164 135.879ZM188.807 138.571L311.193 138.571L250 199.764L188.807 138.571Z" fill="#30B4FF"/>
<path d="M342.114 374.243C342.825 372.552 343.02 370.688 342.673 368.887C342.326 367.085 341.453 365.427 340.164 364.121L256.593 280.55C255.73 279.68 254.703 278.989 253.571 278.517C252.44 278.046 251.226 277.803 250 277.803C248.774 277.803 247.561 278.046 246.429 278.517C245.297 278.989 244.27 279.68 243.407 280.55L159.836 364.121C158.975 364.989 158.294 366.018 157.832 367.149C157.37 368.281 157.136 369.492 157.143 370.714C157.112 371.932 157.366 373.141 157.886 374.243C158.582 375.939 159.765 377.39 161.286 378.415C162.806 379.439 164.595 379.991 166.429 380L333.571 380C335.405 379.991 337.194 379.439 338.714 378.415C340.235 377.39 341.418 375.939 342.114 374.243ZM188.807 361.428L250 300.236L311.193 361.428L188.807 361.428Z" fill="#30B4FF"/>
<path d="M380 250C380 247.537 379.022 245.175 377.28 243.434C375.539 241.693 373.177 240.714 370.714 240.714L352.143 240.714C349.68 240.714 347.318 241.693 345.577 243.434C343.835 245.175 342.857 247.537 342.857 250C342.857 252.463 343.835 254.825 345.577 256.566C347.318 258.307 349.68 259.286 352.143 259.286L370.714 259.286C373.177 259.286 375.539 258.307 377.28 256.566C379.022 254.825 380 252.463 380 250Z" fill="#30B4FF"/>
<path d="M324.286 250C324.286 247.537 323.307 245.175 321.566 243.434C319.825 241.693 317.463 240.714 315 240.714L296.429 240.714C293.966 240.714 291.604 241.693 289.863 243.434C288.121 245.175 287.143 247.537 287.143 250C287.143 252.463 288.121 254.825 289.863 256.566C291.604 258.307 293.966 259.286 296.429 259.286L315 259.286C317.463 259.286 319.825 258.307 321.566 256.566C323.307 254.825 324.286 252.463 324.286 250Z" fill="#30B4FF"/>
<path d="M268.571 250C268.571 247.537 267.593 245.175 265.852 243.434C264.11 241.693 261.748 240.714 259.286 240.714L240.714 240.714C238.251 240.714 235.89 241.693 234.148 243.434C232.407 245.175 231.428 247.537 231.428 250C231.428 252.463 232.407 254.825 234.148 256.566C235.89 258.307 238.251 259.286 240.714 259.286L259.286 259.286C261.748 259.286 264.11 258.307 265.852 256.566C267.593 254.825 268.571 252.463 268.571 250Z" fill="#30B4FF"/>
<path d="M212.857 250C212.857 247.537 211.879 245.175 210.137 243.434C208.396 241.693 206.034 240.714 203.571 240.714L185 240.714C182.537 240.714 180.175 241.693 178.434 243.434C176.692 245.175 175.714 247.537 175.714 250C175.714 252.463 176.692 254.825 178.434 256.566C180.175 258.307 182.537 259.286 185 259.286L203.571 259.286C206.034 259.286 208.396 258.307 210.137 256.566C211.879 254.825 212.857 252.463 212.857 250Z" fill="#30B4FF"/>
<path d="M157.143 250C157.143 247.537 156.165 245.175 154.423 243.434C152.682 241.693 150.32 240.714 147.857 240.714L129.286 240.714C126.823 240.714 124.461 241.693 122.72 243.434C120.979 245.175 120 247.537 120 250C120 252.463 120.979 254.825 122.72 256.566C124.461 258.307 126.823 259.286 129.286 259.286L147.857 259.286C150.32 259.286 152.682 258.307 154.423 256.566C156.165 254.825 157.143 252.463 157.143 250Z" fill="#30B4FF"/>
</svg>
