<svg width="500" height="500" viewBox="0 0 500 500" fill="none" xmlns="http://www.w3.org/2000/svg">
<rect width="500" height="500" fill="black"/>
<path d="M364.121 340.164C365.427 341.453 367.085 342.326 368.887 342.673C370.688 343.02 372.552 342.825 374.243 342.114C375.939 341.418 377.39 340.235 378.415 338.714C379.439 337.194 379.991 335.405 380 333.571L380 166.429C379.991 164.595 379.439 162.806 378.415 161.286C377.39 159.765 375.939 158.582 374.243 157.886C373.141 157.366 371.932 157.112 370.714 157.143C369.492 157.136 368.281 157.37 367.149 157.832C366.018 158.294 364.989 158.975 364.121 159.836L280.55 243.407C279.68 244.27 278.989 245.297 278.517 246.429C278.046 247.561 277.803 248.774 277.803 250C277.803 251.226 278.046 252.44 278.517 253.571C278.989 254.703 279.68 255.73 280.55 256.593L364.121 340.164ZM361.429 188.807L361.429 311.193L300.236 250L361.429 188.807Z" fill="#30B4FF"/>
<path d="M125.757 342.114C127.448 342.825 129.312 343.02 131.113 342.673C132.915 342.326 134.573 341.453 135.879 340.164L219.45 256.593C220.32 255.73 221.011 254.703 221.483 253.571C221.954 252.44 222.197 251.226 222.197 250C222.197 248.774 221.954 247.561 221.483 246.429C221.011 245.297 220.32 244.27 219.45 243.407L135.879 159.836C135.011 158.975 133.982 158.294 132.851 157.832C131.719 157.37 130.508 157.136 129.286 157.143C128.068 157.111 126.859 157.366 125.757 157.886C124.061 158.582 122.61 159.765 121.585 161.286C120.561 162.806 120.009 164.595 120 166.429L120 333.571C120.009 335.405 120.561 337.194 121.585 338.714C122.61 340.235 124.061 341.418 125.757 342.114ZM138.572 188.807L199.764 250L138.572 311.193L138.572 188.807Z" fill="#30B4FF"/>
<path d="M250 380C252.463 380 254.825 379.022 256.566 377.28C258.307 375.539 259.286 373.177 259.286 370.714L259.286 352.143C259.286 349.68 258.307 347.318 256.566 345.577C254.825 343.835 252.463 342.857 250 342.857C247.537 342.857 245.175 343.835 243.434 345.577C241.693 347.318 240.714 349.68 240.714 352.143L240.714 370.714C240.714 373.177 241.693 375.539 243.434 377.28C245.175 379.022 247.537 380 250 380Z" fill="#30B4FF"/>
<path d="M250 324.286C252.463 324.286 254.825 323.307 256.566 321.566C258.307 319.825 259.286 317.463 259.286 315L259.286 296.429C259.286 293.966 258.307 291.604 256.566 289.863C254.825 288.121 252.463 287.143 250 287.143C247.537 287.143 245.175 288.121 243.434 289.863C241.693 291.604 240.714 293.966 240.714 296.429L240.714 315C240.714 317.463 241.693 319.825 243.434 321.566C245.175 323.307 247.537 324.286 250 324.286Z" fill="#30B4FF"/>
<path d="M250 268.572C252.463 268.572 254.825 267.593 256.566 265.852C258.307 264.11 259.286 261.749 259.286 259.286L259.286 240.714C259.286 238.252 258.307 235.89 256.566 234.148C254.825 232.407 252.463 231.429 250 231.429C247.537 231.429 245.175 232.407 243.434 234.148C241.693 235.89 240.714 238.252 240.714 240.714L240.714 259.286C240.714 261.749 241.693 264.11 243.434 265.852C245.175 267.593 247.537 268.572 250 268.572Z" fill="#30B4FF"/>
<path d="M250 212.857C252.463 212.857 254.825 211.879 256.566 210.137C258.307 208.396 259.286 206.034 259.286 203.571L259.286 185C259.286 182.537 258.307 180.175 256.566 178.434C254.825 176.693 252.463 175.714 250 175.714C247.537 175.714 245.175 176.693 243.434 178.434C241.693 180.175 240.714 182.537 240.714 185L240.714 203.571C240.714 206.034 241.693 208.396 243.434 210.137C245.175 211.879 247.537 212.857 250 212.857Z" fill="#30B4FF"/>
<path d="M250 157.143C252.463 157.143 254.825 156.165 256.566 154.423C258.307 152.682 259.286 150.32 259.286 147.857L259.286 129.286C259.286 126.823 258.307 124.461 256.566 122.72C254.825 120.978 252.463 120 250 120C247.537 120 245.175 120.978 243.434 122.72C241.693 124.461 240.714 126.823 240.714 129.286L240.714 147.857C240.714 150.32 241.693 152.682 243.434 154.423C245.175 156.165 247.537 157.143 250 157.143Z" fill="#30B4FF"/>
</svg>
