<svg width="500" height="500" viewBox="0 0 500 500" fill="none" xmlns="http://www.w3.org/2000/svg">
<rect width="500" height="500" fill="black"/>
<path fill-rule="evenodd" clip-rule="evenodd" d="M120 174.167C120 144.267 144.267 120 174.167 120H206.667V141.667H174.167C156.227 141.667 141.667 156.227 141.667 174.167V206.667H120V174.167ZM293.333 120H325.833C355.733 120 380 144.267 380 174.167V206.667H358.333V174.167C358.333 156.227 343.773 141.667 325.833 141.667H293.333V120ZM141.667 293.333V325.833C141.667 343.773 156.227 358.333 174.167 358.333H206.667V380H174.167C144.267 380 120 355.733 120 325.833V293.333H141.667ZM380 293.333V325.833C380 355.733 355.733 380 325.833 380H293.333V358.333H325.833C343.773 358.333 358.333 343.773 358.333 325.833V293.333H380Z" fill="white"/>
</svg>
