<svg width="500" height="500" viewBox="0 0 500 500" fill="none" xmlns="http://www.w3.org/2000/svg">
<rect width="500" height="500" fill="black"/>
<path fill-rule="evenodd" clip-rule="evenodd" d="M380 250.372C355.372 203.76 306.389 172 250 172C193.611 172 144.648 203.76 120 250.372C144.648 296.984 193.611 328.745 250 328.745C306.389 328.745 355.372 296.984 380 250.372ZM142.669 250.372C165.319 285.757 204.936 309.151 250 309.151C295.064 309.151 334.681 285.757 357.35 250.372C334.681 214.987 295.064 191.593 250 191.593C204.936 191.593 165.319 214.987 142.669 250.372ZM289.186 250.372C289.186 272.023 271.65 289.558 250 289.558C228.369 289.558 210.814 272.023 210.814 250.372C210.814 228.722 228.369 211.186 250 211.186C271.65 211.186 289.186 228.722 289.186 250.372Z" fill="white"/>
</svg>
