<svg width="500" height="500" viewBox="0 0 500 500" fill="none" xmlns="http://www.w3.org/2000/svg">
<rect width="500" height="500" fill="black"/>
<path d="M328.39 225.495L301.464 252.421L314.919 265.893L341.861 238.966C364.173 216.655 364.173 180.466 341.861 158.155C319.55 135.844 283.361 135.844 261.05 158.155L234.124 185.098L247.595 198.553L274.521 171.626C289.39 156.758 313.521 156.758 328.39 171.626C343.259 186.511 343.259 210.626 328.39 225.495ZM247.563 306.29L261.034 319.761L234.091 346.688C211.78 368.999 175.608 368.999 153.296 346.688C130.985 324.376 130.985 288.188 153.296 265.893L180.255 238.95L193.71 252.421L166.8 279.348C151.915 294.233 151.915 318.348 166.8 333.216C181.669 348.101 205.8 348.101 220.669 333.216L247.595 306.29H247.563ZM281.233 205.28L200.438 286.091L213.893 299.563L294.704 218.751L281.233 205.28Z" fill="#56FEAD"/>
</svg>
