<svg width="500" height="500" viewBox="0 0 500 500" fill="none" xmlns="http://www.w3.org/2000/svg">
<rect width="500" height="500" fill="black"/>
<path d="M166.101 146.585H153.881L136.25 157.911V169.676L152.825 159.081H153.248V217.5H166.085L166.101 146.585ZM217.5 152.5H347.5V168.75H217.5V152.5ZM217.5 315H347.5V331.25H217.5V315ZM347.5 233.75H217.5V250H347.5V233.75ZM185.861 331.25H137.258V321.971L161.876 297.84C168.864 290.739 172.471 286.514 172.471 280.599C172.471 273.904 167.434 269.792 160.69 269.792C153.637 269.792 149.055 274.326 149.055 281.557H136.835C136.835 268.086 146.813 259.376 160.869 259.376C175.136 259.376 184.789 268.054 184.789 279.932C184.789 287.927 180.986 294.379 167.206 307.606L154.986 320.021V320.509H185.861V331.25Z" fill="#56FEAD"/>
</svg>
