<svg width="500" height="500" viewBox="0 0 500 500" fill="none" xmlns="http://www.w3.org/2000/svg">
<rect width="500" height="500" fill="black"/>
<path fill-rule="evenodd" clip-rule="evenodd" d="M219.412 142.941H158.235V204.118H219.412V142.941ZM142.941 127.647V219.412H234.706V127.647H142.941ZM188.671 273.324L150.787 311.176L188.64 349.029L226.508 311.176L188.671 273.324ZM129.177 311.176L188.671 370.671L248.134 311.176L188.671 251.682L129.177 311.176ZM357.059 280.588H295.882V341.765H357.059V280.588ZM280.588 265.294V357.059H372.353V265.294H280.588ZM333.521 127.647H319.42V166.464H280.588V180.595H319.42V219.412H333.521V180.595H372.353V166.464H333.521V127.647Z" fill="white"/>
</svg>
