<svg width="500" height="500" viewBox="0 0 500 500" fill="none" xmlns="http://www.w3.org/2000/svg">
<rect width="500" height="500" fill="black"/>
<path d="M256.806 140L243.194 140L243.194 359.843L256.806 359.843L256.806 140Z" fill="#FFC122"/>
<path d="M113.5 189.005V191.505L113.5 307.657V310.157V323.77V326.27L116 326.27L129.613 326.27L132.113 326.27L222.859 326.27H225.359V323.77V310.157V307.657H222.859H132.113L132.113 191.505H222.859H225.359V189.005V175.393V172.893H222.859H116H113.5V175.393V189.005Z" fill="#FFC122" stroke="#FFC122" stroke-width="5"/>
<path d="M386.358 310.157V307.657L386.358 191.505V189.005V175.393V172.893L383.858 172.893L370.246 172.893L367.746 172.893L277 172.893H274.5V175.393V189.005V191.505H277H367.746L367.746 307.657H277H274.5V310.157V323.77V326.27H277H383.858H386.358V323.77V310.157Z" fill="#FFC122" stroke="#FFC122" stroke-width="5"/>
</svg>
