<svg width="28" height="28" viewBox="0 0 28 28" fill="none" xmlns="http://www.w3.org/2000/svg">
<rect width="28" height="28" rx="7" fill="black"/>
<g clip-path="url(#clip0_6_2)">
<path d="M14 14C14 13.116 14.3687 12.2681 15.0251 11.643C15.6815 11.0179 16.5717 10.6667 17.5 10.6667C18.4283 10.6667 19.3185 11.0179 19.9749 11.643C20.6313 12.2681 21 13.116 21 14C21 14.8841 20.6313 15.7319 19.9749 16.357C19.3185 16.9821 18.4283 17.3333 17.5 17.3333C16.5717 17.3333 15.6815 16.9821 15.0251 16.357C14.3687 15.7319 14 14.8841 14 14V14Z" fill="#1ABCFE"/>
<path d="M7 20.6667C7 19.7826 7.36875 18.9348 8.02513 18.3096C8.6815 17.6845 9.57174 17.3333 10.5 17.3333H14V20.6667C14 21.5507 13.6313 22.3986 12.9749 23.0237C12.3185 23.6488 11.4283 24 10.5 24C9.57174 24 8.6815 23.6488 8.02513 23.0237C7.36875 22.3986 7 21.5507 7 20.6667V20.6667Z" fill="#0ACF83"/>
<path d="M14 4V10.6667H17.5C18.4283 10.6667 19.3185 10.3155 19.9749 9.69036C20.6313 9.06523 21 8.21739 21 7.33333C21 6.44928 20.6313 5.60143 19.9749 4.97631C19.3185 4.35119 18.4283 4 17.5 4H14Z" fill="#FF7262"/>
<path d="M7 7.33333C7 8.21739 7.36875 9.06523 8.02513 9.69036C8.6815 10.3155 9.57174 10.6667 10.5 10.6667H14V4H10.5C9.57174 4 8.6815 4.35119 8.02513 4.97631C7.36875 5.60143 7 6.44928 7 7.33333V7.33333Z" fill="#F24E1E"/>
<path d="M7 14C7 14.8841 7.36875 15.7319 8.02513 16.357C8.6815 16.9821 9.57174 17.3333 10.5 17.3333H14V10.6667H10.5C9.57174 10.6667 8.6815 11.0179 8.02513 11.643C7.36875 12.2681 7 13.116 7 14V14Z" fill="#A259FF"/>
</g>
<defs>
<clipPath id="clip0_6_2">
<rect width="14" height="20" fill="white" transform="translate(7 4)"/>
</clipPath>
</defs>
</svg>
